<svg width="640" height="640" xmlns="http://www.w3.org/2000/svg">

 <g>
  <title>background</title>
  <rect fill="none" id="canvas_background" height="642" width="642" y="-1" x="-1"/>
 </g>
 <g>
  <title>Layer 1</title>
  <g stroke="null" id="Multicolor">
   <g stroke="null" id="svg_1">
    <g stroke="null" id="svg_2">
     <g stroke="null" id="svg_3">
      <path stroke="null" id="svg_4" fill="#F0F1F1" d="m24.281722,580.305717c1.921216,-4.287931 118.716291,-265.378385 143.989097,-321.873269c-6.515428,33.885793 32.716357,95.188358 75.410044,137.891325c51.891391,51.891391 110.131148,82.324565 140.295165,74.565451c-52.290484,23.407278 -320.23049,143.03313 -324.277109,144.83369c-7.406426,3.406214 -18.581035,-0.157781 -26.87846,-8.538737c-8.380956,-8.297425 -11.944951,-19.472033 -8.538737,-26.87846z"/>
     </g>
    </g>
    <g stroke="null" id="svg_5">
     <path stroke="null" id="svg_6" fill="#FFFFFF" d="m24.281722,580.305717c1.921216,-4.287931 118.716291,-265.378385 143.989097,-321.873269c-6.506147,33.857949 32.642108,95.076983 75.289388,137.770669l-210.860404,210.841841c-8.288144,-8.269581 -11.805732,-19.36994 -8.418081,-26.739241z"/>
    </g>
    <g stroke="null" id="svg_7">
     <g stroke="null" id="svg_8">
      <circle stroke="null" id="svg_9" fill="#DF2C2C" r="18.562466" cy="152.932637" cx="236.469342"/>
     </g>
    </g>
    <g stroke="null" id="svg_10">
     <g stroke="null" id="svg_11">
      <circle stroke="null" id="svg_12" fill="#F37A10" r="18.562475" cy="190.057581" cx="384.96912"/>
     </g>
    </g>
    <g stroke="null" id="svg_13">
     <g stroke="null" id="svg_14">
      <circle stroke="null" id="svg_15" fill="#059BBF" r="18.562466" cy="264.30747" cx="561.312607"/>
     </g>
    </g>
    <g stroke="null" id="svg_16">
     <g stroke="null" id="svg_17">
      <circle stroke="null" id="svg_18" fill="#FA5655" r="18.562483" cy="468.494665" cx="570.593843"/>
     </g>
    </g>
    <g stroke="null" id="svg_19">
     <g stroke="null" id="svg_20">
      <circle stroke="null" id="svg_21" fill="#12B2A0" r="18.562466" cy="60.120275" cx="357.125412"/>
     </g>
    </g>
    <g stroke="null" id="svg_22">
     <g stroke="null" id="svg_23">
      <polygon stroke="null" id="svg_24" fill="#FA5655" points="485.92108154296875,56.89040756225586 449.2416687011719,75.58281326293945 420.1264343261719,46.46757888793945 426.56756591796875,87.13794326782227 389.87890625,105.83037948608398 430.5492858886719,112.27154159545898 436.9904479980469,152.93265914916992 455.6828918457031,116.24392318725586 496.3439025878906,122.68509292602539 467.2287292480469,93.5791130065918 "/>
     </g>
    </g>
    <g stroke="null" id="svg_25">
     <g stroke="null" id="svg_26">
      <polygon stroke="null" id="svg_27" fill="#F37A10" points="478.1063232421875,366.4010581970215 469.2613525390625,393.6137046813965 440.656494140625,393.6137046813965 463.8039855957031,408.9833641052246 454.9588623046875,435.4721336364746 478.1063232421875,418.29247665405273 501.2536315917969,434.92446517944336 492.4086608886719,409.076229095459 515.55615234375,393.6137046813965 486.9512939453125,393.6137046813965 "/>
     </g>
    </g>
    <g stroke="null" id="svg_28">
     <g stroke="null" id="svg_29">
      <path stroke="null" id="svg_30" fill="#DF2C2C" d="m412.812829,273.588707c92.450393,0 111.885302,-58.778068 127.496341,-106.000998c13.003012,-39.296754 23.268059,-70.342489 67.409618,-70.342489c5.123242,0 9.281236,-4.157994 9.281236,-9.281236s-4.157994,-9.281236 -9.281236,-9.281236c-57.552945,0 -71.521206,42.238906 -85.025404,83.076345c-15.861633,47.965428 -30.841548,93.267142 -109.880555,93.267142c-5.123242,0 -9.281236,4.157994 -9.281236,9.281236s4.157994,9.281236 9.281236,9.281236z"/>
     </g>
    </g>
    <g stroke="null" id="svg_31">
     <g stroke="null" id="svg_32">
      <path stroke="null" id="svg_33" fill="#059BBF" d="m288.676295,215.868699c65.042903,-52.039891 41.941906,-86.87237 19.601971,-120.572539c-12.492544,-18.831628 -25.402743,-38.303662 -25.402743,-63.019593c0,-5.123242 -4.157994,-9.281236 -9.281236,-9.281236s-9.281236,4.157994 -9.281236,9.281236c0,30.312517 15.137696,53.135077 28.493395,73.284641c21.718093,32.744201 36.066884,54.388044 -15.731695,95.819482c-4.000213,3.202026 -4.649899,9.039924 -1.447873,13.049418c3.22987,4.018775 9.067768,4.622056 13.049418,1.438592z"/>
     </g>
    </g>
    <g stroke="null" id="svg_34">
     <g stroke="null" id="svg_35">
      <path stroke="null" id="svg_36" fill="#12B2A0" d="m607.718788,384.96354c5.123242,0 9.281236,-4.157994 9.281236,-9.281236s-4.157994,-9.281236 -9.281236,-9.281236c-26.525773,0 -47.696273,-14.11676 -68.170679,-27.769459c-33.059763,-22.042936 -67.251837,-44.846933 -114.734641,2.645152c-3.628963,3.619682 -3.628963,9.503986 0,13.123668c3.619682,3.628963 9.503986,3.628963 13.123668,0c36.725851,-36.71657 58.434663,-22.237842 91.308801,-0.324843c21.718093,14.478728 46.32265,30.887954 78.472852,30.887954z"/>
     </g>
    </g>
    <g stroke="null" id="svg_37">
     <g stroke="null" id="svg_38">
      <path stroke="null" id="svg_39" fill="#DF2C2C" d="m173.551842,564.574022c-84.61703,38.136599 17.263099,-7.573489 -67.437462,30.386767c-20.622907,-21.393249 -40.150628,-44.327184 -57.747851,-68.495523c9.856673,-22.033655 21.866592,-48.893552 34.489073,-77.099229c24.363245,42.981405 55.344011,82.083252 90.69624,115.207984z"/>
     </g>
    </g>
    <g stroke="null" id="svg_40">
     <path stroke="null" id="svg_41" fill="#FA5655" d="m126.328913,513.415848l-49.339051,49.348333c-9.977329,-11.750045 -19.564846,-23.852777 -28.623332,-36.308196c9.856673,-22.033655 21.866592,-48.893552 34.489073,-77.099229c12.770981,22.534841 27.398209,43.965216 43.47331,64.059092z"/>
    </g>
    <g stroke="null" id="svg_42">
     <path stroke="null" id="svg_43" fill="#E2E4E5" d="m243.680863,396.314492c60.14241,60.133129 128.907089,91.587238 152.472147,67.985055c23.379434,-23.379434 -7.118708,-91.615082 -68.003617,-152.583522c-60.96844,-60.884909 -129.185526,-91.280957 -152.574241,-68.003617c-27.221866,27.194022 18.181942,102.678315 68.105711,152.602085z"/>
    </g>
    <path stroke="null" id="svg_44" fill="#DF2C2C" d="m230.176664,427.267415c-33.171138,-44.893339 -53.246452,-92.311175 -57.487977,-134.670736c-4.519962,-12.900918 -6.255553,-24.585995 -4.42715,-34.145668l-52.077016,116.60017c13.049418,28.187114 29.950549,56.513447 50.211488,83.948781c21.086969,28.53052 44.828371,54.685043 70.119739,77.730353l70.555957,-31.519078c-27.973646,-20.892063 -54.490137,-47.492085 -76.895041,-77.943821z"/>
    <g stroke="null" id="svg_45">
     <path stroke="null" id="svg_46" fill="#F0F1F1" d="m328.084424,311.660337l-84.524218,84.524218c-49.877363,-49.923769 -95.179077,-125.305969 -67.994336,-152.472147c23.388715,-23.258778 91.568676,7.109427 152.518553,67.94793z"/>
    </g>
    <path stroke="null" id="svg_47" fill="#FA5655" d="m168.261538,258.45101l-52.077016,116.60017c13.049418,28.187114 29.950549,56.513447 50.211488,83.948781c2.032591,2.747246 4.2044,5.364554 6.283397,8.074675l50.239331,-50.239331c-28.790395,-41.793406 -46.350493,-85.201748 -50.267175,-124.322158c-4.492118,-12.873075 -6.218428,-24.530307 -4.390025,-34.062137z"/>
   </g>
  </g>
 </g>
</svg>